<?xml version="1.0" encoding="UTF-8" standalone="no"?>
<!-- Created with Inkscape (http://www.inkscape.org/) -->

<svg
   xmlns:dc="http://purl.org/dc/elements/1.1/"
   xmlns:cc="http://creativecommons.org/ns#"
   xmlns:rdf="http://www.w3.org/1999/02/22-rdf-syntax-ns#"
   xmlns:svg="http://www.w3.org/2000/svg"
   xmlns="http://www.w3.org/2000/svg"
   xmlns:sodipodi="http://sodipodi.sourceforge.net/DTD/sodipodi-0.dtd"
   xmlns:inkscape="http://www.inkscape.org/namespaces/inkscape"
   version="1.1"
   id="svg2038"
   width="211.2"
   height="211.2"
   viewBox="0 0 211.2 211.2"
   sodipodi:docname="logo.svg"
   inkscape:version="0.92.3 (2405546, 2018-03-11)">
  <metadata
     id="metadata2044">
    <rdf:RDF>
      <cc:Work
         rdf:about="">
        <dc:format>image/svg+xml</dc:format>
        <dc:type
           rdf:resource="http://purl.org/dc/dcmitype/StillImage" />
        <dc:title />
      </cc:Work>
    </rdf:RDF>
  </metadata>
  <defs
     id="defs2042">
    <filter
       inkscape:label="Cracked Lava"
       inkscape:menu="Materials"
       inkscape:menu-tooltip="A volcanic texture, a little like leather"
       style="color-interpolation-filters:sRGB;"
       id="filter5694">
      <feGaussianBlur
         result="result0"
         in="SourceGraphic"
         stdDeviation="0.5"
         id="feGaussianBlur5662" />
      <feTurbulence
         baseFrequency="0.042"
         seed="488"
         numOctaves="7"
         result="result1"
         id="feTurbulence5664" />
      <feDisplacementMap
         result="result5"
         xChannelSelector="R"
         scale="0"
         in2="result1"
         in="result1"
         yChannelSelector="G"
         id="feDisplacementMap5666" />
      <feComposite
         result="result2"
         operator="in"
         in2="result5"
         in="result0"
         id="feComposite5668" />
      <feSpecularLighting
         lighting-color="rgb(255,230,136)"
         surfaceScale="2"
         result="result4"
         specularConstant="2"
         specularExponent="65"
         in="result2"
         id="feSpecularLighting5672">
        <feDistantLight
           elevation="62"
           azimuth="225"
           id="feDistantLight5670" />
      </feSpecularLighting>
      <feComposite
         k1="2.5"
         k3="1"
         k2="-0.5"
         in2="result2"
         in="result4"
         operator="arithmetic"
         result="result91"
         id="feComposite5674" />
      <feBlend
         result="fbSourceGraphic"
         mode="multiply"
         in2="result91"
         id="feBlend5676" />
      <feColorMatrix
         values="1 0 0 -1 0 1 0 1 -1 0 1 0 0 -1 0 -2 -0.5 0 5 -2"
         in="fbSourceGraphic"
         result="fbSourceGraphicAlpha"
         id="feColorMatrix5678" />
      <feGaussianBlur
         stdDeviation="8"
         in="fbSourceGraphicAlpha"
         result="result0"
         id="feGaussianBlur5680" />
      <feOffset
         dx="2"
         dy="2"
         in="result0"
         result="result3"
         id="feOffset5682" />
      <feSpecularLighting
         in="result0"
         result="result1"
         lighting-color="rgb(255,255,255)"
         surfaceScale="4"
         specularConstant="0.8"
         specularExponent="15"
         id="feSpecularLighting5686">
        <fePointLight
           x="-5000"
           y="-10000"
           z="20000"
           id="fePointLight5684" />
      </feSpecularLighting>
      <feComposite
         in2="fbSourceGraphicAlpha"
         in="result1"
         result="result2"
         operator="in"
         id="feComposite5688" />
      <feComposite
         in="fbSourceGraphic"
         result="result4"
         operator="arithmetic"
         k2="2"
         k3="2"
         in2="result2"
         id="feComposite5690" />
      <feBlend
         mode="darken"
         in2="result4"
         id="feBlend5692" />
    </filter>
  </defs>
  <sodipodi:namedview
     pagecolor="#ffffff"
     bordercolor="#666666"
     borderopacity="1"
     objecttolerance="10"
     gridtolerance="10"
     guidetolerance="10"
     inkscape:pageopacity="0"
     inkscape:pageshadow="2"
     inkscape:window-width="1366"
     inkscape:window-height="705"
     id="namedview2040"
     showgrid="false"
     inkscape:zoom="0.93775405"
     inkscape:cx="-41.03882"
     inkscape:cy="241.76447"
     inkscape:window-x="-8"
     inkscape:window-y="-8"
     inkscape:window-maximized="1"
     inkscape:current-layer="svg2038" />
  <path
     style="color:#000000;font-style:normal;font-variant:normal;font-weight:normal;font-stretch:normal;font-size:medium;line-height:normal;font-family:sans-serif;font-variant-ligatures:normal;font-variant-position:normal;font-variant-caps:normal;font-variant-numeric:normal;font-variant-alternates:normal;font-feature-settings:normal;text-indent:0;text-align:start;text-decoration:none;text-decoration-line:none;text-decoration-style:solid;text-decoration-color:#000000;letter-spacing:normal;word-spacing:normal;text-transform:none;writing-mode:lr-tb;direction:ltr;text-orientation:mixed;dominant-baseline:auto;baseline-shift:baseline;text-anchor:start;white-space:normal;shape-padding:0;clip-rule:nonzero;display:inline;overflow:visible;visibility:visible;opacity:1;isolation:auto;mix-blend-mode:normal;color-interpolation:sRGB;color-interpolation-filters:linearRGB;solid-color:#000000;solid-opacity:1;vector-effect:none;fill:#2201e1;fill-opacity:0.90607731;fill-rule:nonzero;stroke:none;stroke-width:1.88976383;stroke-linecap:butt;stroke-linejoin:miter;stroke-miterlimit:4;stroke-dasharray:none;stroke-dashoffset:0;stroke-opacity:1;filter:url(#filter5694);color-rendering:auto;image-rendering:auto;shape-rendering:auto;text-rendering:auto;enable-background:accumulate"
     d="m 109.68493,70.571081 c -15.379613,0 -27.857418,12.477803 -27.857418,27.857422 0,15.379617 12.477803,27.857417 27.857418,27.857417 15.37962,0 27.85742,-12.4778 27.85742,-27.857417 0,-15.379619 -12.4778,-27.857422 -27.85742,-27.857422 z m 0,0.945313 c 14.86897,0 26.91211,12.043142 26.91211,26.912109 0,14.868967 -12.04314,26.912107 -26.91211,26.912107 -14.868963,0 -26.914059,-12.04314 -26.914059,-26.912107 0,-14.868967 12.045096,-26.912109 26.914059,-26.912109 z m 0,1.628906 c -13.952725,0 -25.285153,11.330474 -25.285153,25.283203 0,13.952727 11.332428,25.283207 25.285153,25.283207 13.95273,0 25.28321,-11.33048 25.28321,-25.283207 0,-13.952729 -11.33048,-25.283203 -25.28321,-25.283203 z m 0,1.888672 c 12.93143,0 23.39258,10.463106 23.39258,23.394531 0,12.931427 -10.46115,23.394527 -23.39258,23.394527 -12.931419,0 -23.394528,-10.4631 -23.394528,-23.394527 0,-12.931425 10.463109,-23.394531 23.394528,-23.394531 z m 6.59961,8.527344 c -3.118,0 -5.53855,0.674321 -7.26367,2.023437 -1.72512,1.349116 -2.58789,3.244289 -2.58789,5.685547 0,2.171435 0.55622,3.878674 1.66797,5.125 1.12452,1.246326 3.05247,2.28788 5.78711,3.123047 l 3.77734,1.136723 c 2.32572,0.70667 3.84494,1.4325 4.56055,2.17773 0.72838,0.74523 1.09375,1.81156 1.09375,3.19922 0,1.73458 -0.60154,3.05844 -1.80274,3.9707 -1.18841,0.89941 -2.91875,1.34961 -5.19336,1.34961 -2.44073,0 -4.26169,-0.5198 -5.46289,-1.56055 -1.18842,-1.05359 -1.81501,-2.67313 -1.8789,-4.85742 l -2.20508,-0.0195 v 6.55274 c 1.68679,0.65528 3.34195,1.14362 4.96484,1.46484 1.63568,0.32122 3.24072,0.48242 4.8125,0.48242 3.51414,0 6.15931,-0.70773 7.93555,-2.12109 1.77624,-1.41336 2.66406,-3.51261 2.66406,-6.30078 0,-2.04295 -0.55622,-3.66918 -1.66797,-4.87696 -1.09896,-1.220624 -2.94498,-2.222082 -5.53906,-3.005854 l -3.54687,-1.060547 c -2.56852,-0.770924 -4.24874,-1.548259 -5.04102,-2.332031 -0.79228,-0.783773 -1.18945,-1.863468 -1.18945,-3.238282 0,-1.580393 0.52441,-2.781197 1.57226,-3.603515 1.06064,-0.835168 2.60011,-1.253907 4.61914,-1.253906 2.31295,0 4.03173,0.45688 5.15625,1.36914 1.13731,0.899411 1.81597,2.364433 2.03321,4.394531 h 2.16601 V 85.25663 c -1.78902,-0.552495 -3.47599,-0.971234 -5.06054,-1.253906 -1.58456,-0.295521 -3.04211,-0.441406 -4.3711,-0.441406 z m -19.724607,0.25 c -0.600597,0 -1.116305,0.217439 -1.550781,0.654297 -0.421696,0.436856 -0.632812,0.951927 -0.632812,1.542968 0,0.603891 0.211116,1.117008 0.632812,1.541016 0.434476,0.424008 0.950184,0.636719 1.550781,0.636719 0.600599,0 1.11346,-0.212711 1.535157,-0.636719 0.421697,-0.424008 0.630859,-0.937125 0.630859,-1.541016 0,-0.591041 -0.215916,-1.106112 -0.65039,-1.542968 -0.421697,-0.436858 -0.927805,-0.654297 -1.515626,-0.654297 z m -4.580078,8.55664 v 2.0625 h 3.373047 v 16.382814 h -3.373047 v 2.04297 h 10.236325 v -2.04297 H 98.880246 V 92.367956 Z"
     id="path2050"
     inkscape:connector-curvature="0"
     transform="matrix(3.1053913,0,0,3.1053913,-235.19522,-198.69949)" />
  <g
     aria-label="iS"
     transform="scale(0.99727106,1.0027364)"
     style="font-style:normal;font-weight:normal;font-size:39.36357117px;line-height:1.25;font-family:sans-serif;letter-spacing:0px;word-spacing:0px;fill:#2100e1;fill-opacity:0.90588235;stroke:none;stroke-width:0.98408926"
     id="text2056" />
</svg>
